<?xml version="1.0" encoding="UTF-8"?>
<svg version="1.1" xmlns="http://www.w3.org/2000/svg" width="784" height="1168">
<path d="M0 0 C258.72 0 517.44 0 784 0 C784 385.44 784 770.88 784 1168 C525.28 1168 266.56 1168 0 1168 C0 782.56 0 397.12 0 0 Z " fill="#202020" transform="translate(0,0)"/>
<path d="M0 0 C2.42378297 0.01307839 4.84758462 0.02303195 7.27139282 0.03001404 C13.60766958 0.05656259 19.94279806 0.12517159 26.27862549 0.20294189 C32.76111321 0.27493672 39.24378902 0.30660271 45.7265625 0.34179688 C58.41454842 0.4165549 71.10174398 0.53443585 83.7890625 0.68359375 C83.9217453 1.5787973 84.0544281 2.47400085 84.19113159 3.39633179 C84.36766266 4.56926788 84.54419373 5.74220398 84.72607422 6.95068359 C84.90000702 8.11401215 85.07393982 9.2773407 85.25314331 10.47592163 C87.01777653 21.03789608 92.01575294 29.55039192 98.7890625 37.68359375 C99.33304688 38.34101562 99.87703125 38.9984375 100.4375 39.67578125 C106.48168987 46.30964819 114.44480174 50.77981429 122.9987793 53.28222656 C123.89662643 53.54642395 124.79447357 53.81062134 125.7195282 54.08282471 C126.40247452 54.28107849 127.08542084 54.47933228 127.7890625 54.68359375 C127.88201595 66.35847357 127.95295583 78.03326438 127.99631119 89.70843983 C128.01712662 95.13054857 128.04533336 100.55240288 128.09082031 105.97436523 C128.13449419 111.21339585 128.158245 116.45218275 128.16857147 121.69138145 C128.17592431 123.683538 128.19028214 125.67568222 128.21198273 127.66773415 C128.36593107 142.39433635 127.84255653 153.4613446 117.07421875 164.52734375 C109.99786637 171.20451728 101.77654286 175.87055871 91.7890625 175.68359375 C91.8204834 176.56619873 91.8519043 177.44880371 91.88427734 178.3581543 C91.98682808 181.6477829 92.06188498 184.93570328 92.11865234 188.22631836 C92.14874204 189.64749015 92.18962654 191.06847747 92.24169922 192.48901367 C92.65725919 204.12061879 92.65725919 204.12061879 90.63769531 207.75634766 C88.27070416 209.94500386 85.88007044 210.66487413 82.76953125 211.3046875 C78.85998473 210.48998514 76.8056289 208.50830235 74.1015625 205.74609375 C73.04669824 204.72275228 71.9893591 203.70195639 70.9296875 202.68359375 C70.40310547 202.173125 69.87652344 201.66265625 69.33398438 201.13671875 C67.10785536 199.04286289 64.74257659 197.14771899 62.3515625 195.24609375 C57.42933125 191.28970729 52.79761366 187.08358106 48.20336914 182.75610352 C41.97195552 176.69803187 41.97195552 176.69803187 33.69458008 175.29882812 C31.84664604 175.2836615 31.84664604 175.2836615 29.96138 175.26818848 C28.97757071 175.27052238 28.97757071 175.27052238 27.97388649 175.27290344 C25.90827825 175.27739884 23.84351914 175.26333115 21.77799988 175.24450684 C17.38586795 175.20776577 12.99382539 175.19403837 8.6015625 175.18359375 C3.52573213 175.17147062 -1.54968436 175.14964091 -6.62532997 175.10359192 C-8.64634993 175.09014357 -10.66746294 175.09436985 -12.68852234 175.09899902 C-24.94890188 174.99964497 -34.11355896 172.31901274 -43.19140625 163.83203125 C-50.8662759 155.61713879 -52.81045979 147.6852334 -52.74438477 136.62133789 C-52.75300034 135.44615097 -52.76161591 134.27096405 -52.77049255 133.06016541 C-52.79309587 129.19613279 -52.78642335 125.33282875 -52.77734375 121.46875 C-52.77998973 119.45298557 -52.78518146 117.4372387 -52.79064316 115.42148012 C-52.80759464 109.09088156 -52.80412475 102.76052432 -52.78735352 96.42993164 C-52.77043637 89.92282822 -52.7862711 83.41639588 -52.8185764 76.90936571 C-52.84536021 71.29968244 -52.85252477 65.69020694 -52.84406132 60.08046621 C-52.83915742 56.73997367 -52.84334017 53.40020547 -52.86184883 50.05970955 C-52.8793421 46.33106241 -52.86470931 42.60383519 -52.84204102 38.87524414 C-52.85373322 37.7845462 -52.86542542 36.69384827 -52.87747192 35.57009888 C-52.75249514 25.42430179 -48.89875409 17.16551905 -41.74331665 9.94850159 C-29.3533089 -1.13286656 -15.74578287 -0.25107455 0 0 Z " fill="#FCFCFC" transform="translate(150.2109375,516.31640625)"/>
<path d="M0 0 C2.81375688 2.15939481 5.25389363 4.48574031 7.6875 7.0625 C7.11902344 7.619375 6.55054688 8.17625 5.96484375 8.75 C5.19269531 9.513125 4.42054688 10.27625 3.625 11.0625 C2.87089844 11.805 2.11679687 12.5475 1.33984375 13.3125 C-1.34569641 16.09691867 -3.87878746 18.97503978 -6.41430664 21.89501953 C-9.71001471 25.65827307 -13.09645069 29.33439337 -16.5 33 C-17.19802734 33.76634766 -17.89605469 34.53269531 -18.61523438 35.32226562 C-19.29263672 36.04994141 -19.97003906 36.77761719 -20.66796875 37.52734375 C-21.27278076 38.183396 -21.87759277 38.83944824 -22.50073242 39.51538086 C-24.50997988 41.23113361 -25.6743326 41.89919899 -28.3125 42.0625 C-30.55142656 40.14129909 -32.46298515 38.28927966 -34.4375 36.125 C-36.36184903 34.05990122 -38.30790582 32.05248344 -40.3125 30.0625 C-40.9725 30.0625 -41.6325 30.0625 -42.3125 30.0625 C-43.69482443 31.68876404 -45.03187515 33.3550002 -46.3125 35.0625 C-44.85504576 38.42585594 -43.00132146 40.60784005 -40.3984375 43.171875 C-39.63789063 43.92597656 -38.87734375 44.68007813 -38.09375 45.45703125 C-37.2996875 46.23433594 -36.505625 47.01164063 -35.6875 47.8125 C-34.88570313 48.60527344 -34.08390625 49.39804687 -33.2578125 50.21484375 C-31.28047154 52.16864493 -29.29861091 54.11762103 -27.3125 56.0625 C-24.28117649 54.71693833 -22.30323698 53.25904869 -20.0625 50.82421875 C-19.46010498 50.17533691 -18.85770996 49.52645508 -18.23706055 48.85791016 C-17.60195557 48.1622998 -16.96685059 47.46668945 -16.3125 46.75 C-15.64968018 46.03376465 -14.98686035 45.3175293 -14.30395508 44.57958984 C-12.30076557 42.41269314 -10.30546724 40.23879807 -8.3125 38.0625 C-6.20953765 35.76972442 -4.1055529 33.47789682 -2 31.1875 C-1.28118652 30.40439453 -1.28118652 30.40439453 -0.54785156 29.60546875 C4.05584561 24.61419132 8.8379245 19.81551315 13.6875 15.0625 C15.6875 16.0625 15.6875 16.0625 16.7578125 18.58203125 C21.14503474 32.27991403 20.60578255 42.74756091 14.40234375 55.7578125 C8.92050517 65.74422595 1.45848525 71.62879665 -9.3125 75.0625 C-10.42625 75.475 -11.54 75.8875 -12.6875 76.3125 C-24.948704 78.84930083 -35.55969299 76.38236739 -45.99609375 69.71875 C-54.06553337 63.94903264 -61.09612804 55.33431376 -63.0703125 45.3828125 C-64.5576876 31.1327994 -63.33181633 19.47809225 -54.3125 8.0625 C-39.67082879 -7.73890754 -18.57583253 -10.86510959 0 0 Z " fill="#FBFBFB" transform="translate(314.3125,478.9375)"/>
<path d="M0 0 C4.62 0 9.24 0 14 0 C14 29.7 14 59.4 14 90 C9.38 90 4.76 90 0 90 C0 87.36 0 84.72 0 82 C-0.66 82 -1.32 82 -2 82 C-2.20625 82.5775 -2.4125 83.155 -2.625 83.75 C-5.34534097 88.20146705 -10.17677164 90.39456387 -15 92 C-24.48476301 92.98513239 -32.21257128 92.32002793 -39.92578125 86.5625 C-47.09550973 80.17576114 -50.57440071 71.04211444 -51.23828125 61.6171875 C-51.45064644 50.90951115 -49.97075962 41.56407611 -43 33 C-36.71724472 26.7633285 -30.81142184 23.39627332 -21.75 23.375 C-21.00290771 23.37266357 -20.25581543 23.37032715 -19.48608398 23.36791992 C-12.55680998 23.5936707 -7.87563612 26.017676 -3 31 C-2.34 31.99 -1.68 32.98 -1 34 C-0.67 22.78 -0.34 11.56 0 0 Z " fill="#FAFAFA" transform="translate(571,566)"/>
<path d="M0 0 C4.27965051 2.87570811 7.63439408 6.20578528 10.5625 10.4375 C11.14 11.241875 11.7175 12.04625 12.3125 12.875 C16.70163483 21.8727264 17.15622645 33.20489121 14.6875 42.859375 C10.85731454 52.78761888 5.54378874 59.04461783 -4.10546875 63.52734375 C-12.49969509 66.80348234 -23.03550591 66.82795589 -31.41796875 63.46875 C-40.43328538 58.86518406 -45.97637139 51.90924927 -49.4375 42.4375 C-51.88117514 31.6853294 -50.77486498 20.13262934 -45.05078125 10.609375 C-34.88933346 -3.07044333 -15.51017743 -8.00111222 0 0 Z " fill="#F9F9F9" transform="translate(702.4375,592.5625)"/>
<path d="M0 0 C1.29017532 0.01110306 2.58035065 0.02220612 3.90962219 0.03364563 C4.62207092 0.0329155 5.33451965 0.03218536 6.06855774 0.03143311 C8.42301129 0.03491614 10.77548517 0.0738061 13.1295929 0.11299133 C14.76197224 0.12231704 16.39436558 0.1294343 18.02676392 0.13442993 C22.32286734 0.15351919 26.61812526 0.20263564 30.91389465 0.25794983 C35.29752666 0.30910132 39.68129533 0.33193515 44.06513977 0.35713196 C52.6664392 0.41075339 61.2670515 0.4960884 69.86787415 0.60127258 C69.56848938 1.19472473 69.26910461 1.78817688 68.96064758 2.39961243 C68.07014464 4.19374905 67.2206277 6.00818196 66.38349915 7.82783508 C63.86787415 10.60127258 63.86787415 10.60127258 61.67060852 11.08076477 C58.96305202 11.19297909 56.32356261 11.12406229 53.61787415 10.97627258 C52.68201477 10.94920227 51.7461554 10.92213196 50.78193665 10.89424133 C48.47490174 10.82361782 46.17256645 10.72507837 43.86787415 10.60127258 C44.4092804 11.50619446 44.4092804 11.50619446 44.96162415 12.42939758 C45.42568665 13.22861633 45.88974915 14.02783508 46.36787415 14.85127258 C46.83193665 15.64017883 47.29599915 16.42908508 47.77412415 17.24189758 C48.86787415 19.60127258 48.86787415 19.60127258 48.86787415 23.60127258 C56.12787415 23.60127258 63.38787415 23.60127258 70.86787415 23.60127258 C67.16839228 31.35256792 67.16839228 31.35256792 63.86787415 34.60127258 C59.07479902 35.57870448 54.69262557 35.26375579 49.86787415 34.60127258 C49.6977179 35.25353821 49.52756165 35.90580383 49.35224915 36.57783508 C46.94890857 45.24520161 43.40142132 51.48767937 35.86787415 56.60127258 C29.39920042 60.02586456 23.13705653 61.29194567 15.86787415 61.60127258 C19.61467877 65.91431456 23.39665197 70.18901185 27.24287415 74.41377258 C30.35316265 77.85505463 33.33265726 81.36448556 36.24287415 84.97627258 C40.11370236 89.77198895 44.19682493 94.31642339 48.41426086 98.80586243 C51.86787415 102.50183453 51.86787415 102.50183453 51.86787415 103.60127258 C34.46124626 105.39589968 34.46124626 105.39589968 28.8874054 101.53877258 C26.64902567 98.66842773 24.77480032 95.70002762 22.86787415 92.60127258 C21.20107209 90.66882395 19.49190912 88.77212224 17.74287415 86.91377258 C14.89579972 83.81664694 12.06571956 80.71348855 9.30537415 77.53877258 C2.26954111 69.40064121 2.26954111 69.40064121 -5.13212585 61.60127258 C-5.32743835 59.43721008 -5.32743835 59.43721008 -5.25712585 56.97627258 C-5.23005554 55.75037415 -5.23005554 55.75037415 -5.20243835 54.49971008 C-5.17923523 53.87322571 -5.1560321 53.24674133 -5.13212585 52.60127258 C-3.8997821 52.57549133 -2.66743835 52.54971008 -1.39775085 52.52314758 C14.1349167 52.39031371 14.1349167 52.39031371 27.8561554 45.99189758 C31.30720689 42.2690449 32.17376039 39.68361385 33.86787415 34.60127258 C19.67787415 34.60127258 5.48787415 34.60127258 -9.13212585 34.60127258 C-5.00414019 26.34530125 -5.00414019 26.34530125 -2.13212585 23.60127258 C0.88474933 22.95133356 2.80689557 22.76736775 5.7936554 22.91767883 C6.54124619 22.92758347 7.28883698 22.9374881 8.05908203 22.94769287 C10.43488662 22.98672196 12.80597977 23.07449516 15.18037415 23.16377258 C16.79554152 23.19890251 18.41078173 23.23083862 20.02607727 23.25947571 C23.97514392 23.3364427 27.92071191 23.45712307 31.86787415 23.60127258 C28.70244375 18.48449363 28.70244375 18.48449363 23.80537415 15.28877258 C23.13377258 14.98326477 22.46217102 14.67775696 21.7702179 14.36299133 C18.07258644 12.88242022 15.06941382 12.42569277 11.1061554 12.28486633 C9.42876282 12.22202454 9.42876282 12.22202454 7.71748352 12.15791321 C6.55023743 12.1185968 5.38299133 12.0792804 4.18037415 12.03877258 C2.41210266 11.97399719 2.41210266 11.97399719 0.60810852 11.90791321 C-2.30518468 11.80176082 -5.21856342 11.69971016 -8.13212585 11.60127258 C-4.90971066 0.94251462 -4.90971066 0.94251462 0 0 Z " fill="#0B0B0B" transform="translate(156.1321258544922,553.3987274169922)"/>
<path d="M0 0 C7.20690455 6.70567247 10.38165333 13.55829206 11.765625 23.24609375 C6.155625 23.24609375 0.545625 23.24609375 -5.234375 23.24609375 C-5.729375 21.71984375 -6.224375 20.19359375 -6.734375 18.62109375 C-8.99501622 12.98147291 -11.930273 10.10830728 -17.234375 7.24609375 C-24.6458398 4.28150783 -32.84626262 4.15651948 -40.234375 7.24609375 C-47.3428474 11.92595178 -51.56127935 18.26770739 -53.84765625 26.4375 C-54.42687219 30.64412893 -54.45940484 34.81678838 -54.484375 39.05859375 C-54.505 39.92291016 -54.525625 40.78722656 -54.546875 41.67773438 C-54.60006245 50.48690651 -51.93628153 58.40380591 -46.234375 65.24609375 C-38.52140989 71.45334057 -30.94365808 72.06004562 -21.234375 71.24609375 C-15.10216617 69.60159187 -10.48731402 65.64739126 -7.234375 60.24609375 C-5.9502266 56.92669129 -5.08984878 53.7155152 -4.234375 50.24609375 C1.045625 50.24609375 6.325625 50.24609375 11.765625 50.24609375 C11.43887542 60.04858126 7.72974323 68.4297714 1.078125 75.68359375 C-7.93217214 83.95449628 -20.10414601 86.81340444 -32.05078125 86.5546875 C-45.11399326 85.2884375 -54.39151159 79.31137717 -62.66796875 69.421875 C-65.39865367 65.62887874 -67.43336949 61.54962003 -69.234375 57.24609375 C-69.60046875 56.40433594 -69.9665625 55.56257812 -70.34375 54.6953125 C-73.71733408 41.63007238 -72.98971409 25.04565702 -66.234375 13.24609375 C-65.77675781 12.41335938 -65.31914062 11.580625 -64.84765625 10.72265625 C-59.14125975 1.31101052 -50.73448118 -5.15614212 -40.109375 -8.00390625 C-26.09370694 -10.71974504 -11.4158262 -8.96102441 0 0 Z " fill="#F9F9F9" transform="translate(386.234375,572.75390625)"/>
<path d="M0 0 C9.70605931 4.87454652 14.79991324 10.64112537 18.31713867 20.85009766 C19.31713867 25.85009766 19.31713867 25.85009766 19.31713867 36.85009766 C3.14713867 36.85009766 -13.02286133 36.85009766 -29.68286133 36.85009766 C-26.23132252 47.79637717 -26.23132252 47.79637717 -18.30786133 54.16259766 C-11.83837779 55.8569862 -7.47930976 54.63685171 -1.68286133 51.85009766 C-0.69286133 51.52009766 0.29713867 51.19009766 1.31713867 50.85009766 C1.97713867 48.87009766 2.63713867 46.89009766 3.31713867 44.85009766 C7.93713867 44.85009766 12.55713867 44.85009766 17.31713867 44.85009766 C15.87823244 53.48353508 12.04171246 57.73094013 5.31713867 62.85009766 C-2.79448503 68.3207276 -12.95669134 67.73588849 -22.38208008 66.49462891 C-30.73052145 64.26138337 -37.50332376 57.41058316 -41.74536133 50.10009766 C-46.20732988 41.52549617 -45.83652424 29.94907993 -44.06958008 20.60791016 C-41.58000751 12.86501046 -37.0021224 6.52484007 -30.04614258 2.21728516 C-20.3572119 -2.73326336 -10.27276885 -4.60675592 0 0 Z " fill="#F7F7F7" transform="translate(493.682861328125,591.14990234375)"/>
<path d="M0 0 C4.95 0 9.9 0 15 0 C15 30.03 15 60.06 15 91 C10.38 91 5.76 91 1 91 C-0.83357444 89.16642556 -0.11999967 86.60364305 -0.12442017 84.1640625 C-0.12082489 83.32609131 -0.11722961 82.48812012 -0.11352539 81.62475586 C-0.11367142 80.74678848 -0.11381744 79.86882111 -0.1139679 78.96424866 C-0.11326844 76.04775565 -0.10547455 73.13132567 -0.09765625 70.21484375 C-0.09579218 68.19845108 -0.09436823 66.18205796 -0.09336853 64.16566467 C-0.08954244 58.84734862 -0.07971139 53.5290597 -0.06866455 48.21075439 C-0.05845238 42.78829312 -0.05387133 37.36582748 -0.04882812 31.94335938 C-0.0380892 21.29556097 -0.02101169 10.64778274 0 0 Z " fill="#F5F5F5" transform="translate(627,566)"/>
<path d="M0 0 C5.53745219 2.76872609 9.76162506 6.95403217 12.11328125 12.73828125 C14.1639048 20.28132382 14.53288415 29.14450862 10.8125 36.1875 C7.9544267 40.48675474 4.95383515 43.34872162 0 45 C-5.16036039 45.49416324 -9.59273205 45.62545242 -14.375 43.5 C-20.6941796 37.48173371 -23.07203316 31.40680633 -23.3125 22.75 C-23.24051381 15.11946428 -20.43159189 8.43159189 -15 3 C-10.19420453 -0.24111787 -5.64538673 -0.90366802 0 0 Z " fill="#232323" transform="translate(558,601)"/>
<path d="M0 0 C5.09606694 2.81468813 7.94045368 6.10538751 10.1875 11.5625 C11.66819398 19.77362117 11.71302288 27.7906998 7.875 35.375 C5.5 38.25 5.5 38.25 2.875 40.375 C2.153125 40.973125 1.43125 41.57125 0.6875 42.1875 C-4.12801323 44.2207167 -9.19204389 44.30821331 -14.1875 42.71875 C-20.19817233 39.71341384 -22.13138104 35.00809025 -24.375 29.0625 C-26.11431774 20.51085442 -25.65049878 13.01835695 -21.125 5.375 C-15.27377161 -1.18103544 -8.43507427 -3.84282212 0 0 Z " fill="#222222" transform="translate(692.125,602.625)"/>
<path d="M0 0 C1.16660156 0.00322266 2.33320313 0.00644531 3.53515625 0.00976562 C4.75847656 0.01814453 5.98179687 0.02652344 7.2421875 0.03515625 C8.47324219 0.03966797 9.70429688 0.04417969 10.97265625 0.04882812 C14.02085389 0.06064284 17.06902666 0.07857875 20.1171875 0.09765625 C20.1171875 4.38765625 20.1171875 8.67765625 20.1171875 13.09765625 C12.1971875 13.09765625 4.2771875 13.09765625 -3.8828125 13.09765625 C-3.8828125 30.58765625 -3.8828125 48.07765625 -3.8828125 66.09765625 C-8.5028125 66.09765625 -13.1228125 66.09765625 -17.8828125 66.09765625 C-18.13080481 58.28742462 -18.31184373 50.47950381 -18.43212891 42.66625977 C-18.47664175 40.00965248 -18.55036909 37.35848663 -18.63720703 34.70239258 C-18.75912159 30.87642681 -18.81535287 27.05412221 -18.859375 23.2265625 C-18.93679428 21.45884239 -18.93679428 21.45884239 -19.01577759 19.65541077 C-19.01920505 14.57086405 -18.90462119 11.37593434 -15.66033936 7.31735229 C-10.37398557 2.49038419 -7.17449548 -0.03482765 0 0 Z " fill="#FAFAFA" transform="translate(426.8828125,590.90234375)"/>
<path d="M0 0 C4.62 0 9.24 0 14 0 C15 1 15 1 15.12025452 3.58790588 C15.1169236 5.31665199 15.1169236 5.31665199 15.11352539 7.08032227 C15.11344986 8.38159561 15.11337433 9.68286896 15.11329651 11.02357483 C15.10818909 12.45451902 15.10297308 13.88546282 15.09765625 15.31640625 C15.09579203 16.7722926 15.09436815 18.22817957 15.09336853 19.68406677 C15.08954365 23.52279379 15.07971364 27.36148319 15.06866455 31.20019531 C15.05844978 35.11457816 15.05387077 39.02896706 15.04882812 42.94335938 C15.03809133 50.62892541 15.02049479 58.31445265 15 66 C10.05 66 5.1 66 0 66 C0 44.22 0 22.44 0 0 Z " fill="#F5F5F5" transform="translate(599,591)"/>
<path d="M0 0 C3.86998675 2.19055854 5.87976992 4.15435399 8.3125 7.875 C8.8075 11.34 8.8075 11.34 9.3125 14.875 C-1.5775 14.875 -12.4675 14.875 -23.6875 14.875 C-22.70727941 8.99367647 -21.81955615 5.45059947 -17.1484375 1.609375 C-11.38931636 -2.12484967 -6.41843519 -1.95816667 0 0 Z " fill="#222222" transform="translate(487.6875,602.125)"/>
<path d="M0 0 C4.95 0 9.9 0 15 0 C15 5.28 15 10.56 15 16 C10.05 16 5.1 16 0 16 C0 10.72 0 5.44 0 0 Z " fill="#FAFAFA" transform="translate(599,567)"/>
</svg>
